<svg xmlns="http://www.w3.org/2000/svg" width="305" height="339" viewBox="0 0 305 339">
  <g fill="#0052CC" fill-rule="evenodd">
    <path d="M2 130.565046L2 0 30.8094612 0 30.8094612 143.621551C30.8094612 153.934349 31.0932955 161.290385 31.6609724 165.689882 32.2286494 170.089378 33.2220691 173.471736 34.6412615 175.837057 37.6688719 181.419213 42.0446494 185.629421 47.7687254 188.467806 53.4928013 191.30619 60.4230868 192.725361 68.5597898 192.725361 76.7911055 192.725361 83.7450439 191.30619 89.4218134 188.467806 95.0985829 185.629421 99.4980133 181.419213 102.620237 175.837057 104.039429 173.471736 105.032849 170.113031 105.600526 165.760841 106.168203 161.408651 106.452037 154.123573 106.452037 143.905388L106.452037 0 135.11958 0 135.11958 130.565046C135.11958 152.231383 133.771367 167.629389 131.074901 176.759527 128.378436 185.889665 123.718824 193.434924 117.095926 199.395532 110.85148 204.977689 103.708319 209.140591 95.6662286 211.884363 87.6241385 214.628135 78.5887492 216 68.5597898 216 58.6254431 216 49.6373595 214.628135 41.5952694 211.884363 33.5531792 209.140591 26.3627124 204.977689 20.0236531 199.395532 13.4953681 193.529537 8.85940925 185.936972 6.11563732 176.617608 3.37186539 167.298245 2 151.947544 2 130.565046zM184.649146 0L302.299606 0 302.299606 24.1261498 257.879106 24.1261498 257.879106 187.758213 302.299606 187.758213 302.299606 211.884363 184.649146 211.884363 184.649146 187.758213 229.069645 187.758213 229.069645 24.1261498 184.649146 24.1261498 184.649146 0zM8.05496074 313.471806L8.05496074 338.159172 0 338.159172 0 270.845824 8.05496074 270.845824 8.05496074 277.072091C9.39020415 274.662848 11.1680831 272.826916 13.388651 271.56424 15.6092188 270.301564 18.1708158 269.670236 21.0735189 269.670236 26.9660061 269.670236 31.5884914 271.948823 34.9411135 276.506067 38.2937355 281.063311 39.9700214 287.376595 39.9700214 295.44611 39.9700214 303.370489 38.2864789 309.589437 34.9193433 314.103141 31.5522078 318.616844 26.9369791 320.873662 21.0735189 320.873662 18.1127618 320.873662 15.5221382 320.242333 13.3015703 318.979657 11.0810025 317.716982 9.33215009 315.881049 8.05496074 313.471806zM31.566738 295.271949C31.566738 289.060164 30.5870905 284.372369 28.6277659 281.208423 26.6684413 278.044476 23.7585251 276.462527 19.89793 276.462527 16.0083079 276.462527 13.0621085 278.051733 11.0592434 281.230193 9.05637828 284.408653 8.05496074 289.089191 8.05496074 295.271949 8.05496074 301.425679 9.05637828 306.098961 11.0592434 309.291934 13.0621085 312.484908 16.0083079 314.08137 19.89793 314.08137 23.7585251 314.08137 26.6684413 312.499421 28.6277659 309.335475 30.5870905 306.171528 31.566738 301.483733 31.566738 295.271949zM72.1463241 257L72.1463241 270.845824 90.3461813 270.845824 90.3461813 277.072091 72.1463241 277.072091 72.1463241 303.544611C72.1463241 307.143963 72.828449 309.654763 74.1927195 311.077088 75.5569899 312.499412 77.9371707 313.210564 81.3333333 313.210564L90.3461813 313.210564 90.3461813 319.610992 80.5496074 319.610992C74.5410121 319.610992 70.3031292 318.406388 67.8358315 315.997145 65.3685339 313.587901 64.1349036 309.437098 64.1349036 303.544611L64.1349036 277.072091 51.1163455 277.072091 51.1163455 270.845824 64.1349036 270.845824 64.1349036 257 72.1463241 257zM125.831549 257L125.831549 270.845824 144.031406 270.845824 144.031406 277.072091 125.831549 277.072091 125.831549 303.544611C125.831549 307.143963 126.513674 309.654763 127.877944 311.077088 129.242215 312.499412 131.622396 313.210564 135.018558 313.210564L144.031406 313.210564 144.031406 319.610992 134.234832 319.610992C128.226237 319.610992 123.988354 318.406388 121.521056 315.997145 119.053759 313.587901 117.820128 309.437098 117.820128 303.544611L117.820128 277.072091 104.80157 277.072091 104.80157 270.845824 117.820128 270.845824 117.820128 257 125.831549 257zM203.072091 280.90364C201.359497 279.568397 199.617901 278.596006 197.847252 277.986438 196.076603 277.376871 194.131821 277.072091 192.012848 277.072091 187.020199 277.072091 183.203201 278.639528 180.561742 281.774447 177.920282 284.909366 176.599572 289.437515 176.599572 295.359029L176.599572 319.610992 168.544611 319.610992 168.544611 270.845824 176.599572 270.845824 176.599572 280.381156C177.934815 276.92694 179.988447 274.278263 182.760528 272.435046 185.53261 270.59183 188.819872 269.670236 192.622413 269.670236 194.596251 269.670236 196.439439 269.916962 198.152034 270.410421 199.864629 270.903881 201.504632 271.673085 203.072091 272.718059L203.072091 280.90364zM252.229122 289.394004L252.229122 319.610992 244.174161 319.610992 244.174161 289.394004C244.174161 285.010923 243.404957 281.788971 241.866524 279.728051 240.328091 277.667132 237.918884 276.636688 234.638829 276.636688 230.894342 276.636688 228.013453 277.964655 225.996074 280.620628 223.978696 283.276601 222.970021 287.086342 222.970021 292.049964L222.970021 319.610992 214.958601 319.610992 214.958601 270.845824 222.970021 270.845824 222.970021 278.1606C224.392346 275.374005 226.322615 273.26232 228.760885 271.825482 231.199156 270.388644 234.087302 269.670236 237.42541 269.670236 242.389033 269.670236 246.09718 271.302982 248.549964 274.568522 251.002748 277.834063 252.229122 282.775841 252.229122 289.394004zM302.518201 272.543897L302.518201 280.381156C300.225066 279.045913 297.917452 278.044495 295.595289 277.376874 293.273127 276.709252 290.907459 276.375446 288.498216 276.375446 284.869837 276.375446 282.163107 276.963235 280.377944 278.138829 278.592782 279.314424 277.700214 281.106816 277.700214 283.51606 277.700214 285.693087 278.367826 287.318577 279.703069 288.392577 281.038313 289.466577 284.361858 290.511534 289.673804 291.52748L292.895789 292.137045C296.872492 292.891748 299.884001 294.401131 301.930407 296.665239 303.976813 298.929348 305 301.875547 305 305.503926 305 310.322413 303.287431 314.088614 299.862241 316.802641 296.437052 319.516668 291.67669 320.873662 285.581014 320.873662 283.17177 320.873662 280.646456 320.619679 278.004996 320.111706 275.363537 319.603733 272.504417 318.841785 269.427552 317.825839L269.427552 309.553176C272.417336 311.091609 275.276456 312.245416 278.004996 313.014632 280.733537 313.783849 283.316904 314.168451 285.755175 314.168451 289.296473 314.168451 292.039486 313.450043 293.984297 312.013205 295.929108 310.576367 296.901499 308.566275 296.901499 305.982869 296.901499 302.267409 293.345741 299.698556 286.234118 298.276231L285.885796 298.189151 282.881513 297.579586C278.266215 296.679748 274.89913 295.163108 272.780157 293.029622 270.661184 290.896135 269.601713 287.986219 269.601713 284.299786 269.601713 279.626434 271.183663 276.019879 274.347609 273.480014 277.511555 270.940149 282.025191 269.670236 287.888651 269.670236 290.501084 269.670236 293.011884 269.909705 295.421128 270.388651 297.830371 270.867597 300.196039 271.586005 302.518201 272.543897z"/>
  </g>
</svg>
